<?xml version="1.0" encoding="utf-8" ?>
<svg xmlns="http://www.w3.org/2000/svg" xmlns:xlink="http://www.w3.org/1999/xlink" width="100" height="95" style="enable-background:new 0 0 112.197 112.197;">
	<path transform="scale(0.0976562 0.0927734)" d="M510.649 70.75L511.775 70.5461L875.977 308.726C876.499 311.73 876.061 315.298 876.031 318.373L875.967 337.804L875.953 414.837L875.914 700.852C870.311 705.563 863.564 709.193 857.402 713.158L827.892 732.406L732.65 795.164L594.197 886.118L539.592 921.958C530.678 927.734 522.219 933.956 512.863 939.048L511.5 939.469C508.6 938.883 505.227 935.752 502.735 934.114L482.595 920.878L419.261 879.275L197.25 733.046L148.414 701.477L148.422 308.782L510.649 70.75ZM510.583 96.25L235.811 276.718L183.867 310.841L173.317 317.803C172.052 318.643 170.297 319.418 169.61 320.777L169.652 321.181L169.623 688.351L512.245 913.903L855.048 688.554L854.989 320.609L823.245 299.75L735.597 242.204L536.142 112.062L515.954 98.5311C515.021 97.9496 512.718 96.1523 511.771 96.0473C511.372 96.0031 510.979 96.1824 510.583 96.25Z"/>
	<path transform="scale(0.0976562 0.0927734)" d="M510.544 293.75L512.005 293.42C528.158 303.205 543.236 315.182 558.934 325.75L718.474 436.894L778.155 478.542L797.253 491.544C802.045 494.832 807.035 498.099 811.147 502.234C811.591 502.68 812.869 503.759 813.108 504.265C813.338 504.753 813.089 507.265 813.084 507.997L812.999 521.326L512.75 730.548L511.492 730.971L210.423 519.423L210.495 504.95C212.923 502.575 216.207 500.653 218.945 498.612L239.289 483.717L300.902 440.25L510.544 293.75ZM511.21 318.954L237.284 511.812L274.942 538.793L456.092 666.072L497.228 694.902L506.201 701.089C507.919 702.262 509.768 703.823 511.75 704.485L514.036 703.355L788.577 512.377L511.21 318.954Z"/>
	<path transform="scale(0.0976562 0.0927734)" d="M597.947 442.769L696.109 512.362L608.588 574.553L597.906 582.24L586.309 565.631L657.894 512.32L587.529 460.623C587.409 458.781 596.204 445.583 597.947 442.769Z"/>
	<path transform="scale(0.0976562 0.0927734)" d="M425.584 443.722C429.763 449.073 434.357 455.27 437.601 461.225L366.678 512.072L365.81 512.607C373.193 518.726 381.269 524.067 389.138 529.538L417.048 549.186C423.986 554.042 431.561 558.691 437.717 564.498C436.953 566.581 435.375 568.587 434.154 570.445L426.734 581.269L418.235 575.735L327.499 512.592C331.149 509.109 335.976 506.374 340.161 503.544L359.976 489.904L425.584 443.722Z"/>
	<path transform="scale(0.0976562 0.0927734)" d="M553.515 408.516L570.703 420.582L470.507 612.048C464.605 608.943 458.747 604.342 453.34 600.4L553.515 408.516Z"/>
</svg>
